<svg width="20" height="18" viewBox="0 0 20 18" fill="none" xmlns="http://www.w3.org/2000/svg">
    <path
        d="M9.62213 2.38738L10 2.82346L10.3779 2.38738C10.898 1.78712 11.5154 1.32369 12.2336 0.9939C12.9512 0.664448 13.7049 0.5 14.5 0.5C15.9452 0.5 17.1249 0.970019 18.0749 1.9019C19.0243 2.83323 19.5 3.98586 19.5 5.3951C19.5 6.08858 19.3811 6.76715 19.1419 7.43319C18.9061 8.08979 18.4823 8.83376 17.8514 9.66681C17.221 10.4993 16.3642 11.4492 15.2749 12.5177C14.1832 13.5885 12.7986 14.8656 11.1194 16.3497C11.1192 16.3499 11.119 16.35 11.1189 16.3501L10 17.3341L8.88112 16.3501C8.88096 16.35 8.88079 16.3499 8.88063 16.3497C7.20136 14.8656 5.81675 13.5885 4.72513 12.5177C3.63584 11.4492 2.77902 10.4993 2.1486 9.66681C1.51773 8.83376 1.09388 8.08979 0.858075 7.43319C0.618888 6.76715 0.5 6.08858 0.5 5.3951C0.5 3.98586 0.975691 2.83323 1.92513 1.9019C2.87513 0.970019 4.05484 0.5 5.5 0.5C6.29505 0.5 7.04885 0.664448 7.76636 0.9939C8.48462 1.32369 9.10198 1.78712 9.62213 2.38738Z"
        fill="url(#paint0_linear_31_17)" fill-opacity="0.5" stroke="black" />
    <defs>
        <linearGradient id="paint0_linear_31_17" x1="18.5" y1="8" x2="2" y2="8"
            gradientUnits="userSpaceOnUse">
            <stop stop-color="#EB1C1C" />
            <stop offset="1" stop-color="#6170FF" />
        </linearGradient>
    </defs>
</svg>
