<svg width="20" height="20" viewBox="0 0 20 20" fill="none" xmlns="http://www.w3.org/2000/svg">
    <path
        d="M7.52892 9.27359L7.53442 9.2672L7.5397 9.26063C7.87179 8.8475 8.25417 8.50873 8.68757 8.2413C9.09217 7.99164 9.52629 7.86842 10 7.86842C10.4797 7.86842 10.9179 7.98608 11.3239 8.22185C11.7516 8.47026 12.1303 8.79745 12.4603 9.208L12.4602 9.20804L12.4655 9.21436C12.9117 9.75113 13.3064 10.3302 13.6498 10.9522C14.0247 11.6314 14.4653 12.265 14.9711 12.8525L14.9711 12.8526L14.9737 12.8556C15.5564 13.5215 16.1433 14.1962 16.7343 14.8797C17.2467 15.4722 17.5 16.1541 17.5 16.9474C17.5 17.6598 17.2838 18.2595 16.8546 18.7705C16.4354 19.2697 15.9434 19.5 15.35 19.5C14.4794 19.5 13.6172 19.4236 12.763 19.271C11.8505 19.1079 10.9294 19.0263 10 19.0263C9.07059 19.0263 8.14948 19.1079 7.23702 19.271C6.38281 19.4236 5.52059 19.5 4.65 19.5C4.05659 19.5 3.56457 19.2697 3.14538 18.7705C2.71617 18.2595 2.5 17.6598 2.5 16.9474C2.5 16.1541 2.75333 15.4722 3.2657 14.8797C3.85632 14.1967 4.44276 13.5225 5.02503 12.857C5.53297 12.2852 5.971 11.6626 6.33874 10.9898C6.67164 10.3807 7.06816 9.80878 7.52892 9.27359ZM2.5 8.97368C1.93745 8.97368 1.4767 8.77584 1.0875 8.36615C0.697201 7.95531 0.5 7.45785 0.5 6.84211C0.5 6.22636 0.697201 5.7289 1.0875 5.31806C1.4767 4.90837 1.93745 4.71053 2.5 4.71053C3.06255 4.71053 3.5233 4.90837 3.9125 5.31806C4.3028 5.7289 4.5 6.22636 4.5 6.84211C4.5 7.45785 4.3028 7.95531 3.9125 8.36615C3.5233 8.77584 3.06255 8.97368 2.5 8.97368ZM7 4.76316C6.43745 4.76316 5.97671 4.56531 5.5875 4.15563C5.1972 3.74478 5 3.24732 5 2.63158C5 2.01583 5.1972 1.51837 5.5875 1.10753C5.97671 0.697843 6.43745 0.5 7 0.5C7.56255 0.5 8.0233 0.697843 8.4125 1.10753C8.8028 1.51837 9 2.01583 9 2.63158C9 3.24732 8.8028 3.74478 8.4125 4.15563C8.0233 4.56531 7.56255 4.76316 7 4.76316ZM13 4.76316C12.4374 4.76316 11.9767 4.56531 11.5875 4.15563C11.1972 3.74478 11 3.24732 11 2.63158C11 2.01583 11.1972 1.51837 11.5875 1.10753C11.9767 0.697843 12.4374 0.5 13 0.5C13.5626 0.5 14.0233 0.697843 14.4125 1.10753C14.8028 1.51837 15 2.01583 15 2.63158C15 3.24732 14.8028 3.74478 14.4125 4.15563C14.0233 4.56531 13.5626 4.76316 13 4.76316ZM17.5 8.97368C16.9374 8.97368 16.4767 8.77584 16.0875 8.36615C15.6972 7.95531 15.5 7.45785 15.5 6.84211C15.5 6.22636 15.6972 5.7289 16.0875 5.31806C16.4767 4.90837 16.9374 4.71053 17.5 4.71053C18.0626 4.71053 18.5233 4.90837 18.9125 5.31806C19.3028 5.7289 19.5 6.22636 19.5 6.84211C19.5 7.45785 19.3028 7.95531 18.9125 8.36615C18.5233 8.77584 18.0626 8.97368 17.5 8.97368Z"
        fill="url(#paint0_linear_31_21)" fill-opacity="0.5" stroke="black" />
    <defs>
        <linearGradient id="paint0_linear_31_21" x1="10" y1="0" x2="10" y2="20"
            gradientUnits="userSpaceOnUse">
            <stop stop-color="#EB1C1C" />
            <stop offset="1" stop-color="#6170FF" />
        </linearGradient>
    </defs>
</svg>
